#!OML:ASF F:\VICON\USERDATA\INSTALL\rory3\rory3.ASF
:FULLY-SPECIFIED
:DEGREES
339
root -6.6831 18.2045 -13.5677 -161.109 -76.3459 170.366
lowerback -6.60597 -1.32823 -2.46292
upperback -1.53001 -1.62156 -1.40898
thorax 2.15055 -0.842173 -0.205017
lowerneck -17.2233 2.33551 3.31003
upperneck 27.9599 3.68121 -6.4755
head 12.2833 0.898031 -2.50197
rclavicle 2.38542e-015 2.38542e-015
rhumerus -34.2711 11.8504 -91.32
rradius 31.6809
rwrist 1.43168
rhand -22.0867 11.2708
rfingers 7.12502
rthumb 4.32506 -18.665
lclavicle 2.38542e-015 2.38542e-015
lhumerus -35.8056 -17.6986 87.9701
lradius 41.0645
lwrist 17.904
lhand -11.5897 26.571
lfingers 7.12502
lthumb 14.4523 56.0477
rfemur -22.6718 5.59855 7.30007
rtibia 25.567
rfoot -9.5043 23.8299
rtoes -5.98674
lfemur -16.5142 -4.0191 -19.2191
ltibia 29.6208
lfoot -15.8593 -28.196
ltoes -2.84226
340
root -6.69927 18.207 -13.6393 -159.472 -77.7456 168.923
lowerback -6.64505 -1.26995 -2.44512
upperback -1.52443 -1.54235 -1.43727
thorax 2.17564 -0.80254 -0.238421
lowerneck -17.1592 2.34571 3.36936
upperneck 27.9097 3.71217 -6.55385
head 12.255 0.914571 -2.53502
rclavicle -1.39895e-014 0
rhumerus -34.2853 12.0317 -91.4039
rradius 31.3268
rwrist 0.923154
rhand -21.9293 11.136
rfingers 7.12502
rthumb 4.477 -18.7967
lclavicle -1.39895e-014 0
lhumerus -35.7291 -17.3601 87.5227
lradius 40.7353
lwrist 17.5912
lhand -11.6629 26.7066
lfingers 7.12502
lthumb 14.3818 56.1884
rfemur -22.3808 5.04046 7.56934
rtibia 25.6139
rfoot -10.2158 22.9685
rtoes -6.76795
lfemur -16.9137 -4.43179 -18.9107
ltibia 29.7496
lfoot -15.3919 -28.8681
ltoes -2.5906
341
root -6.71315 18.2134 -13.7098 -156.685 -78.9836 166.386
lowerback -6.74192 -1.23639 -2.69365
upperback -1.49076 -1.47534 -1.43862
thorax 2.26936 -0.771146 -0.0978956
lowerneck -17.1911 2.45362 3.38962
upperneck 27.7872 3.90698 -6.66364
head 12.2287 0.997327 -2.54533
rclavicle 5.71506e-016 1.82882e-014
rhumerus -34.1367 12.0587 -91.2358
rradius 30.9541
rwrist 1.59395
rhand -21.523 10.9119
rfingers 7.12502
rthumb 4.86936 -19.0121
lclavicle 5.71506e-016 1.82882e-014
lhumerus -35.5388 -16.9237 87.0883
lradius 40.3615
lwrist 17.2502
lhand -11.8591 26.7032
lfingers 7.12502
lthumb 14.1928 56.1984
rfemur -22.2325 4.46524 7.66136
rtibia 25.6895
rfoot -10.9233 22.0046
rtoes -7.51763
lfemur -17.4001 -4.89703 -18.7967
ltibia 29.8664
lfoot -14.6093 -29.4857
ltoes -0.971789
342
root -6.7251 18.2217 -13.7787 -154.585 -80.2594 164.549
lowerback -6.8011 -1.17296 -2.66154
upperback -1.46523 -1.38897 -1.40814
thorax 2.32711 -0.727788 -0.0786256
lowerneck -17.2411 2.54126 3.50515
upperneck 27.6894 4.0679 -6.85949
head 12.2185 1.06265 -2.6111
rclavicle -3.14825e-014 -1.86858e-014
rhumerus -33.9821 12.0065 -91.0376
rradius 30.5107
rwrist 2.68695
rhand -21.1389 11.3726
rfingers 7.12502
rthumb 5.24028 -18.5426
lclavicle -3.14825e-014 -1.86858e-014
lhumerus -35.3228 -16.352 86.5391
lradius 39.9944
lwrist 16.9003
lhand -11.2569 26.8074
lfingers 7.12502
lthumb 14.773 56.2609
rfemur -22.0965 3.88197 8.05913
rtibia 25.7837
rfoot -11.7531 20.9108
rtoes -9.05271
lfemur -17.855 -5.24758 -18.4435
ltibia 29.9747
lfoot -14.0487 -29.9683
ltoes 0.158135
343
root -6.73522 18.2297 -13.8493 -153.31 -81.693 163.437
lowerback -6.65589 -1.08754 -2.36538
upperback -1.48732 -1.30039 -1.34404
thorax 2.21696 -0.6798 -0.167119
lowerneck -17.1653 2.552 3.54044
upperneck 27.6306 4.10054 -6.91996
head 12.1841 1.07997 -2.63272
rclavicle 2.14439e-014 1.98785e-016
rhumerus -34.0437 12.2069 -91.0714
rradius 30.1783
rwrist 3.09785
rhand -21.0082 11.4317
rfingers 7.12502
rthumb 5.36644 -18.4804
lclavicle 2.14439e-014 1.98785e-016
lhumerus -35.2294 -15.7417 85.9761
lradius 39.7184
lwrist 16.6522
lhand -10.8903 26.9971
lfingers 7.12502
lthumb 15.1262 56.4244
rfemur -21.8005 3.54645 8.73255
rtibia 25.8589
rfoot -12.6784 19.3518
rtoes -10.7986
lfemur -18.2072 -5.52338 -17.825
ltibia 30.0965
lfoot -13.8294 -30.4982
ltoes -0.00726675
